<svg width="128" height="109" viewBox="0 0 128 109" fill="none" xmlns="http://www.w3.org/2000/svg">
<path d="M70.5101 106.498C98.5101 106.498 121.21 83.7976 121.21 55.6976C121.21 27.5976 98.4101 4.89758 70.5101 4.89758C42.5101 4.89758 19.8101 27.5976 19.8101 55.6976C19.8101 83.7976 42.5101 106.498 70.5101 106.498Z" fill="#1F2229" stroke="#2E333D" stroke-width="2" stroke-miterlimit="10"/>
<path d="M117.91 22.3976C120.174 22.3976 122.01 20.562 122.01 18.2976C122.01 16.0333 120.174 14.1976 117.91 14.1976C115.646 14.1976 113.81 16.0333 113.81 18.2976C113.81 20.562 115.646 22.3976 117.91 22.3976Z" fill="#3B414E"/>
<path d="M123.91 6.39761C125.457 6.39761 126.71 5.144 126.71 3.59761C126.71 2.05121 125.457 0.797607 123.91 0.797607C122.364 0.797607 121.11 2.05121 121.11 3.59761C121.11 5.144 122.364 6.39761 123.91 6.39761Z" fill="#3B414E"/>
<path d="M22.5102 22.2976C24.0566 22.2976 25.3102 21.044 25.3102 19.4976C25.3102 17.9512 24.0566 16.6976 22.5102 16.6976C20.9638 16.6976 19.7102 17.9512 19.7102 19.4976C19.7102 21.044 20.9638 22.2976 22.5102 22.2976Z" fill="#3B414E"/>
<path d="M5.4102 76.2976C8.28209 76.2976 10.6102 73.9695 10.6102 71.0976C10.6102 68.2257 8.28209 65.8976 5.4102 65.8976C2.53832 65.8976 0.210205 68.2257 0.210205 71.0976C0.210205 73.9695 2.53832 76.2976 5.4102 76.2976Z" fill="#3B414E"/>
<path d="M85.6017 28.4994L100.902 83.4994C101.402 85.3994 100.302 87.2994 98.4017 87.7994L44.5017 102.099C42.6017 102.599 40.7017 101.499 40.2017 99.5994L21.4017 28.5994C20.9017 26.6994 22.0017 24.7994 23.9017 24.2994L62.9017 13.9994L85.6017 28.4994Z" fill="#2E333D" stroke="#3E4450" stroke-width="2" stroke-miterlimit="10"/>
<path d="M84.4101 63.4977L55.3101 71.1977L52.1101 71.9977L42.4101 74.5977C42.0101 74.6977 41.7101 75.1977 41.9101 75.6977C42.0101 76.1977 42.5101 76.4977 42.9101 76.3977L52.6101 73.7977L55.8101 72.9977L84.9101 65.2977C85.3101 65.1977 85.6101 64.6977 85.4101 64.1977C85.3101 63.6977 84.8101 63.3977 84.4101 63.4977Z" fill="#3E4450"/>
<path d="M82.5101 56.6977L71.7101 59.4977L68.0101 60.4977L40.7101 67.7977C40.3101 67.8977 40.0101 68.3977 40.2101 68.8977C40.3101 69.3977 40.8101 69.6977 41.2101 69.5977L68.6101 62.2977L72.3101 61.2977L83.1101 58.4977C83.5101 58.3977 83.8101 57.8977 83.6101 57.3977C83.4101 56.9977 82.9101 56.5977 82.5101 56.6977Z" fill="#3E4450"/>
<path d="M80.91 49.7977L78.11 50.4977L75.31 51.1977L38.81 60.8977C38.41 60.9977 38.11 61.4977 38.31 61.9977C38.41 62.4977 38.91 62.7977 39.31 62.6977L75.81 52.9977L78.91 52.1977L81.41 51.4977C81.81 51.3977 82.11 50.8977 81.91 50.3977C81.81 49.9977 81.41 49.6977 80.91 49.7977Z" fill="#3E4450"/>
<path d="M64.0101 85.1976L62.0101 85.6976C61.6101 85.7976 61.1101 85.4976 61.0101 84.9976C60.9101 84.4976 61.1101 83.9976 61.5101 83.8976L63.5101 83.3976C63.9101 83.2976 64.4101 83.5976 64.5101 84.0976C64.6101 84.6976 64.4101 85.0976 64.0101 85.1976Z" fill="#2E333D"/>
<path d="M57.91 86.7977L46.41 89.7977C46.01 89.8977 45.51 89.5977 45.41 89.0977C45.31 88.5977 45.51 88.0977 45.91 87.9977L57.41 84.9977C57.81 84.8977 58.31 85.1977 58.41 85.6977C58.61 86.1977 58.41 86.6977 57.91 86.7977Z" fill="#2E333D"/>
<path d="M79.51 42.8976L70.41 45.2976L68.21 45.8976L37.11 54.0976C36.71 54.1976 36.41 54.6976 36.61 55.1976C36.71 55.6976 37.21 55.9976 37.61 55.8976L68.61 47.7976L70.81 47.1976L79.81 44.7976C80.31 44.6976 80.51 44.1976 80.41 43.5976C80.41 43.1976 79.91 42.7976 79.51 42.8976Z" fill="#3E4450"/>
<path d="M58.0101 27.7977L32.2101 34.5977C31.6101 34.7977 31.0101 34.3977 30.8101 33.7977C30.6101 33.1977 31.0101 32.5977 31.6101 32.3977L57.4101 25.5977C58.0101 25.3977 58.6101 25.7977 58.8101 26.3977C59.0101 26.9977 58.6101 27.5977 58.0101 27.7977Z" fill="#3E4450"/>
<path d="M43.81 38.1976L33.91 40.7976C33.31 40.9976 32.71 40.5976 32.51 39.9976C32.31 39.3976 32.71 38.7976 33.31 38.5976L43.11 35.9976C43.71 35.7976 44.31 36.1976 44.51 36.7976C44.71 37.3976 44.31 37.9976 43.81 38.1976Z" fill="#3E4450"/>
<path d="M62.51 14.1976L66.51 29.3976C67.11 31.4976 69.41 32.7976 71.51 32.1976L85.21 28.6976" fill="#3E4450"/>
<path d="M126.002 43.9994L116.802 100.399C116.502 102.299 114.602 103.599 112.702 103.199L57.9018 93.5994C56.0018 93.2994 54.7018 91.3994 55.0018 89.4994L67.7018 17.1994C68.0018 15.2994 69.9018 13.9994 71.8018 14.3994L111.602 21.3994L126.002 43.9994Z" fill="#2E333D" stroke="#3E4450" stroke-width="2" stroke-miterlimit="10"/>
<path d="M110.31 75.4976L80.7103 70.2976L77.5103 69.6976L67.6103 67.9976C67.2103 67.8976 66.7103 68.2976 66.7103 68.7976C66.6103 69.2976 66.9103 69.7976 67.3103 69.8976L77.2103 71.5976L80.4103 72.1976L110.01 77.3976C110.41 77.4976 110.91 77.0976 110.91 76.5976C111.01 76.0976 110.81 75.5976 110.31 75.4976Z" fill="#3E4450"/>
<path d="M111.51 68.5977L100.51 66.6977L96.8101 65.9977L68.9101 61.0977C68.5101 60.9977 68.0101 61.3977 68.0101 61.8977C67.9101 62.3977 68.2101 62.8977 68.6101 62.9977L96.5101 67.8977L100.21 68.5977L111.21 70.4977C111.61 70.5977 112.11 70.1977 112.11 69.6977C112.21 69.1977 111.91 68.6977 111.51 68.5977Z" fill="#3E4450"/>
<path d="M112.91 61.5977L110.01 61.0977L107.11 60.5977L69.9101 54.0977C69.5101 53.9977 69.0101 54.3977 69.0101 54.8977C68.9101 55.3977 69.2101 55.8977 69.6101 55.9977L106.81 62.4977L110.01 63.0977L112.51 63.4977C112.91 63.5977 113.41 63.1977 113.41 62.6977C113.61 62.1977 113.41 61.6977 112.91 61.5977Z" fill="#3E4450"/>
<path d="M82.7102 86.6976L80.7102 86.3976C80.3102 86.2976 80.0102 85.7976 80.1102 85.2976C80.2102 84.7976 80.6102 84.3976 81.0102 84.4976L83.0102 84.7976C83.4102 84.8976 83.7102 85.3976 83.6102 85.8976C83.5102 86.4976 83.1102 86.6976 82.7102 86.6976Z" fill="#2E333D"/>
<path d="M76.6102 85.5976L64.9102 83.5976C64.5102 83.4976 64.2102 82.9976 64.3102 82.4976C64.4102 81.9976 64.8102 81.5976 65.2102 81.6976L76.9102 83.6976C77.3102 83.7976 77.6102 84.2976 77.5102 84.7976C77.4102 85.3976 77.0102 85.6976 76.6102 85.5976Z" fill="#2E333D"/>
<path d="M114.51 54.7976L105.21 53.1976L102.91 52.7976L71.2102 47.1976C70.8102 47.0976 70.3102 47.4976 70.3102 47.9976C70.2102 48.4976 70.5102 48.9976 70.9102 49.0976L102.61 54.6976L104.91 55.0976L114.11 56.6976C114.61 56.7976 115.01 56.3976 115.11 55.8976C115.21 55.3976 114.91 54.8976 114.51 54.7976Z" fill="#3E4450"/>
<path d="M101.41 32.0977L75.1101 27.4977C74.5101 27.3977 74.1101 26.7977 74.2101 26.1977C74.3101 25.5977 74.9101 25.1977 75.5101 25.2977L101.81 29.8977C102.41 29.9977 102.81 30.5977 102.71 31.1977C102.61 31.6977 102.01 32.1977 101.41 32.0977Z" fill="#3E4450"/>
<path d="M84.11 35.4976L74.01 33.6976C73.41 33.5976 73.01 32.9976 73.11 32.3976C73.21 31.7976 73.81 31.3976 74.41 31.4976L84.41 33.2976C85.01 33.3976 85.41 33.9976 85.31 34.5976C85.21 35.1976 84.61 35.5976 84.11 35.4976Z" fill="#3E4450"/>
<path d="M111.11 21.5977L108.41 37.0977C108.01 39.2977 109.61 41.3977 111.81 41.7977L125.61 44.1977" fill="#3E4450"/>
<path d="M87.9103 95.2976C100.226 95.2976 110.21 85.3136 110.21 72.9976C110.21 60.6817 100.226 50.6976 87.9103 50.6976C75.5944 50.6976 65.6104 60.6817 65.6104 72.9976C65.6104 85.3136 75.5944 95.2976 87.9103 95.2976Z" fill="#3E4450"/>
<path d="M120.715 107.532C119.849 107.532 118.984 107.186 118.291 106.407L103.836 91.9512L103.317 92.2975C98.6424 95.7598 93.1892 97.5776 87.6494 97.5776C80.9844 97.5776 74.3193 94.8942 69.3854 90.2201C64.1919 85.2862 61.3354 78.6211 61.3354 71.3502C61.3354 56.8948 73.1075 45.1228 87.5628 45.1228C97.4306 45.1228 106.086 50.3163 110.761 59.1454C115.348 67.8878 114.742 78.1018 109.116 86.3249L108.77 86.8443L123.312 101.386C124.783 102.858 124.437 104.329 124.177 105.108C123.485 106.493 122.1 107.532 120.715 107.532ZM87.5628 52.3072C77.0026 52.3072 68.5198 60.8765 68.5198 71.3502C68.5198 83.2953 78.301 90.4797 87.8225 90.4797C93.622 90.4797 98.9021 87.883 102.624 83.2088C107.212 77.4959 107.991 69.7921 104.788 63.1271C101.499 56.462 94.9204 52.3072 87.5628 52.3072Z" fill="#6D7381" stroke="#949BAB" stroke-width="2" stroke-miterlimit="10" stroke-linejoin="round"/>
<path d="M85.8103 76.5976C85.7103 76.1976 85.7104 75.7976 85.7104 75.2976C85.7104 73.5976 86.4104 72.0976 88.2104 70.7976L89.7104 69.6976C90.6104 68.9976 91.0104 68.1976 91.0104 67.1976C91.0104 65.7976 90.0103 64.3976 87.9103 64.3976C85.7103 64.3976 84.7104 66.1976 84.7104 67.8976C84.7104 68.2976 84.7103 68.5976 84.8103 68.8976L80.8103 68.7976C80.7103 68.3976 80.6104 67.8976 80.6104 67.3976C80.6104 63.9976 83.1103 60.7976 87.8103 60.7976C92.6103 60.7976 95.2104 63.8976 95.2104 66.9976C95.2104 69.4976 93.9104 71.1976 92.1104 72.4976L90.8103 73.3976C89.7103 74.1976 89.1104 75.1976 89.1104 76.3976V76.5976H85.8103ZM87.5104 78.5976C88.9104 78.5976 90.0104 79.6976 90.0104 81.0976C90.0104 82.4976 88.9104 83.5976 87.5104 83.5976C86.1104 83.5976 85.0104 82.4976 85.0104 81.0976C85.1104 79.7976 86.1104 78.5976 87.5104 78.5976Z" fill="#C7CDDB"/>
</svg>
