<svg width="138" height="108" viewBox="0 0 138 108" fill="none" xmlns="http://www.w3.org/2000/svg">
<path d="M65.9744 106.491C93.9744 106.491 116.674 83.7906 116.674 55.6906C116.674 27.5906 93.8744 4.89062 65.9744 4.89062C37.9744 4.89062 15.2744 27.5906 15.2744 55.6906C15.2744 83.7906 37.9744 106.491 65.9744 106.491Z" fill="#1F2229" stroke="#2E333D" stroke-width="2" stroke-miterlimit="10"/>
<path d="M113.374 22.3909C115.639 22.3909 117.474 20.5553 117.474 18.2909C117.474 16.0266 115.639 14.1909 113.374 14.1909C111.11 14.1909 109.274 16.0266 109.274 18.2909C109.274 20.5553 111.11 22.3909 113.374 22.3909Z" fill="#3B414E"/>
<path d="M119.375 6.39077C120.921 6.39077 122.175 5.13717 122.175 3.59077C122.175 2.04437 120.921 0.790771 119.375 0.790771C117.828 0.790771 116.575 2.04437 116.575 3.59077C116.575 5.13717 117.828 6.39077 119.375 6.39077Z" fill="#3B414E"/>
<path d="M17.9748 22.2909C19.5212 22.2909 20.7748 21.0373 20.7748 19.4909C20.7748 17.9445 19.5212 16.6909 17.9748 16.6909C16.4284 16.6909 15.1748 17.9445 15.1748 19.4909C15.1748 21.0373 16.4284 22.2909 17.9748 22.2909Z" fill="#3B414E"/>
<path d="M6.19268 82.8189C9.06456 82.8189 11.3927 80.4908 11.3927 77.6189C11.3927 74.7471 9.06456 72.4189 6.19268 72.4189C3.32079 72.4189 0.992676 74.7471 0.992676 77.6189C0.992676 80.4908 3.32079 82.8189 6.19268 82.8189Z" fill="#3B414E"/>
<path d="M136.514 94.1081C136.442 96.5767 134.264 98.4644 131.795 98.4644H99.8483C98.6866 98.4644 97.7427 99.3357 97.6701 100.425C97.5975 101.659 98.5414 102.603 99.7757 102.603H107.908C108.416 102.603 108.851 103.039 108.851 103.547C108.851 104.055 108.416 104.491 107.908 104.491H59.9876C57.519 104.491 55.4134 102.603 55.2682 100.134C55.1956 97.5932 57.2286 95.4876 59.7698 95.4876H66.8126C67.8291 95.3424 68.7003 94.4711 68.7003 93.382C68.7003 92.2203 67.7565 91.2764 66.5948 91.2764H44.9582C41.3279 91.2764 38.2058 88.59 37.988 84.9597C37.6976 81.039 40.8196 77.7717 44.7403 77.7717H108.488C112.191 77.7717 115.241 80.8212 115.241 84.5241C115.241 86.1214 114.66 87.5735 113.789 88.7352C114.224 88.9531 114.587 89.1709 114.95 89.4613H132.231C134.554 89.5339 136.587 91.5669 136.514 94.1081Z" fill="#6D7381" stroke="#949BAB" stroke-width="2" stroke-miterlimit="10" stroke-linejoin="round"/>
<path d="M88.993 31.1028L69.8976 34.8057L37.8784 41.0498L23.7928 43.8088C21.2516 44.3171 19.509 46.6405 19.7269 49.2543L22.4859 80.1118C22.7037 82.6531 24.8819 84.686 27.4231 84.686L93.8576 85.4847L88.993 31.1028Z" fill="#2E333D" stroke="#3E4450" stroke-width="2" stroke-miterlimit="10"/>
<path d="M96.9069 33.2812L101.336 81.9998C101.336 82.3629 101.118 82.7259 100.755 82.7985L95.4547 83.9602L90.7354 32.4099L96.1808 32.5551C96.5438 32.5551 96.8343 32.9182 96.9069 33.2812Z" fill="#2E333D" stroke="#3E4450" stroke-width="2" stroke-miterlimit="10"/>
<path d="M84.7817 29.2151L90.1546 88.1712C90.2272 88.6068 90.6628 88.8972 91.0259 88.6794L96.2535 86.6465C96.9069 86.356 97.3426 85.63 97.27 84.9039L92.4054 30.9576C92.3328 30.2316 91.8245 29.6507 91.0985 29.4329L85.5804 28.489C85.1448 28.4164 84.7817 28.7795 84.7817 29.2151Z" fill="#2E333D" stroke="#3E4450" stroke-width="2" stroke-miterlimit="10"/>
<path d="M70.6239 34.7332L38.6047 40.9773C38.2416 42.7198 38.0964 44.4624 38.3143 46.2775C39.1855 56.0793 47.8256 63.2673 57.5549 62.396C67.2841 61.5248 74.4721 52.8847 73.6008 43.1555C73.3104 40.0334 72.2939 37.2018 70.6239 34.7332Z" fill="#1F2229" stroke="#3E4450" stroke-width="2" stroke-miterlimit="10"/>
</svg>
